<svg width="22" height="22" viewBox="0 0 22 22" fill="none" xmlns="http://www.w3.org/2000/svg">
<path d="M0.5 15.5C0.5 15.1022 0.658035 14.7206 0.93934 14.4393C1.22064 14.158 1.60218 14 2 14H5C5.39782 14 5.77936 14.158 6.06066 14.4393C6.34196 14.7206 6.5 15.1022 6.5 15.5V20C6.5 20.3978 6.34196 20.7794 6.06066 21.0607C5.77936 21.342 5.39782 21.5 5 21.5H2C1.60218 21.5 1.22064 21.342 0.93934 21.0607C0.658035 20.7794 0.5 20.3978 0.5 20V15.5ZM8 9.5C8 9.10218 8.15804 8.72064 8.43934 8.43934C8.72064 8.15804 9.10218 8 9.5 8H12.5C12.8978 8 13.2794 8.15804 13.5607 8.43934C13.842 8.72064 14 9.10218 14 9.5V20C14 20.3978 13.842 20.7794 13.5607 21.0607C13.2794 21.342 12.8978 21.5 12.5 21.5H9.5C9.10218 21.5 8.72064 21.342 8.43934 21.0607C8.15804 20.7794 8 20.3978 8 20V9.5ZM15.5 2C15.5 1.60218 15.658 1.22064 15.9393 0.93934C16.2206 0.658035 16.6022 0.5 17 0.5H20C20.3978 0.5 20.7794 0.658035 21.0607 0.93934C21.342 1.22064 21.5 1.60218 21.5 2V20C21.5 20.3978 21.342 20.7794 21.0607 21.0607C20.7794 21.342 20.3978 21.5 20 21.5H17C16.6022 21.5 16.2206 21.342 15.9393 21.0607C15.658 20.7794 15.5 20.3978 15.5 20V2Z" fill="white"/>
</svg>
